<mxfile host="app.diagrams.net" modified="2023-09-22T20:53:48.120Z" agent="Mozilla/5.0 (Windows NT 10.0; Win64; x64) AppleWebKit/537.36 (KHTML, like Gecko) Chrome/116.0.0.0 Safari/537.36" etag="aehhURDx173LTGsgk-yW" version="21.7.5" type="device">
  <diagram id="C5RBs43oDa-KdzZeNtuy" name="Page-1">
    <mxGraphModel dx="1400" dy="1892" grid="1" gridSize="10" guides="1" tooltips="1" connect="1" arrows="1" fold="1" page="1" pageScale="1" pageWidth="827" pageHeight="1169" math="0" shadow="0">
      <root>
        <mxCell id="WIyWlLk6GJQsqaUBKTNV-0" />
        <mxCell id="WIyWlLk6GJQsqaUBKTNV-1" parent="WIyWlLk6GJQsqaUBKTNV-0" />
        <mxCell id="VwsCQoI9j7GchgmYV7Oo-0" value="&lt;p style=&quot;margin:0px;margin-top:4px;text-align:center;&quot;&gt;class Field&lt;br&gt;&lt;/p&gt;&lt;hr size=&quot;1&quot;&gt;&lt;p style=&quot;margin:0px;margin-left:4px;&quot;&gt;&lt;/p&gt;&amp;nbsp; _value&lt;hr size=&quot;1&quot;&gt;&lt;p style=&quot;margin:0px;margin-left:4px;&quot;&gt;__init__&lt;/p&gt;&lt;p style=&quot;margin:0px;margin-left:4px;&quot;&gt;__repr__&lt;/p&gt;&lt;p style=&quot;margin:0px;margin-left:4px;&quot;&gt;__str__&lt;/p&gt;" style="verticalAlign=top;align=left;overflow=fill;fontSize=12;fontFamily=Helvetica;html=1;whiteSpace=wrap;fillColor=#f8cecc;strokeColor=#b85450;" parent="WIyWlLk6GJQsqaUBKTNV-1" vertex="1">
          <mxGeometry x="10" y="110" width="91" height="140" as="geometry" />
        </mxCell>
        <mxCell id="Tlzxx7g_BvjtaXMO_pwe-0" value="&lt;p style=&quot;margin:0px;margin-top:4px;text-align:center;&quot;&gt;class Field&lt;br&gt;&lt;/p&gt;&lt;hr size=&quot;1&quot;&gt;&lt;p style=&quot;margin:0px;margin-left:4px;&quot;&gt;&lt;/p&gt;&amp;nbsp; _value&lt;hr size=&quot;1&quot;&gt;&lt;p style=&quot;margin:0px;margin-left:4px;&quot;&gt;__init__&lt;/p&gt;&lt;p style=&quot;margin:0px;margin-left:4px;&quot;&gt;__repr__&lt;/p&gt;&lt;p style=&quot;margin:0px;margin-left:4px;&quot;&gt;__str__&lt;/p&gt;" style="verticalAlign=top;align=left;overflow=fill;fontSize=12;fontFamily=Helvetica;html=1;whiteSpace=wrap;fillColor=#dae8fc;strokeColor=#6c8ebf;" vertex="1" parent="WIyWlLk6GJQsqaUBKTNV-1">
          <mxGeometry x="160" y="-100" width="91" height="110" as="geometry" />
        </mxCell>
        <mxCell id="Tlzxx7g_BvjtaXMO_pwe-2" value="&lt;p style=&quot;margin:0px;margin-top:4px;text-align:center;&quot;&gt;class Birthday&lt;br&gt;&lt;/p&gt;&lt;hr size=&quot;1&quot;&gt;&lt;p style=&quot;margin:0px;margin-left:4px;&quot;&gt;&lt;/p&gt;&amp;nbsp;&amp;nbsp;__value&lt;div&gt;&amp;nbsp;value&lt;/div&gt;&lt;hr size=&quot;1&quot;&gt;&lt;p style=&quot;margin:0px;margin-left:4px;&quot;&gt;__init__&lt;/p&gt;&lt;p style=&quot;margin:0px;margin-left:4px;&quot;&gt;__repr__&lt;/p&gt;&lt;p style=&quot;margin:0px;margin-left:4px;&quot;&gt;__str__&lt;/p&gt;&lt;p style=&quot;margin:0px;margin-left:4px;&quot;&gt;adjust_two_digit_year&lt;/p&gt;&lt;p style=&quot;margin:0px;margin-left:4px;&quot;&gt;parse_date&lt;/p&gt;&lt;p style=&quot;margin:0px;margin-left:4px;&quot;&gt;set_date&lt;/p&gt;" style="verticalAlign=top;align=left;overflow=fill;fontSize=12;fontFamily=Helvetica;html=1;whiteSpace=wrap;fillColor=#dae8fc;strokeColor=#6c8ebf;" vertex="1" parent="WIyWlLk6GJQsqaUBKTNV-1">
          <mxGeometry x="160" y="100" width="91" height="170" as="geometry" />
        </mxCell>
        <mxCell id="Tlzxx7g_BvjtaXMO_pwe-3" value="&lt;p style=&quot;margin:0px;margin-top:4px;text-align:center;&quot;&gt;class Address&lt;br&gt;&lt;/p&gt;&lt;hr size=&quot;1&quot;&gt;&lt;p style=&quot;margin:0px;margin-left:4px;&quot;&gt;&lt;/p&gt;&amp;nbsp; _value&lt;hr size=&quot;1&quot;&gt;&lt;p style=&quot;margin:0px;margin-left:4px;&quot;&gt;__init__&lt;/p&gt;&lt;p style=&quot;margin:0px;margin-left:4px;&quot;&gt;__repr__&lt;/p&gt;&lt;p style=&quot;margin:0px;margin-left:4px;&quot;&gt;__str__&lt;/p&gt;" style="verticalAlign=top;align=left;overflow=fill;fontSize=12;fontFamily=Helvetica;html=1;whiteSpace=wrap;fillColor=#dae8fc;strokeColor=#6c8ebf;" vertex="1" parent="WIyWlLk6GJQsqaUBKTNV-1">
          <mxGeometry x="260" y="270" width="91" height="110" as="geometry" />
        </mxCell>
        <mxCell id="Tlzxx7g_BvjtaXMO_pwe-4" value="&lt;p style=&quot;margin:0px;margin-top:4px;text-align:center;&quot;&gt;class Email&lt;br&gt;&lt;/p&gt;&lt;hr size=&quot;1&quot;&gt;&lt;p style=&quot;margin:0px;margin-left:4px;&quot;&gt;&lt;/p&gt;&amp;nbsp;&amp;nbsp;_value&lt;div&gt;&amp;nbsp;value&lt;/div&gt;&lt;hr size=&quot;1&quot;&gt;&lt;p style=&quot;margin:0px;margin-left:4px;&quot;&gt;__init__&lt;/p&gt;&lt;p style=&quot;margin:0px;margin-left:4px;&quot;&gt;__repr__&lt;/p&gt;&lt;p style=&quot;margin:0px;margin-left:4px;&quot;&gt;__str__&lt;/p&gt;" style="verticalAlign=top;align=left;overflow=fill;fontSize=12;fontFamily=Helvetica;html=1;whiteSpace=wrap;fillColor=#dae8fc;strokeColor=#6c8ebf;" vertex="1" parent="WIyWlLk6GJQsqaUBKTNV-1">
          <mxGeometry x="160" y="350" width="91" height="120" as="geometry" />
        </mxCell>
        <mxCell id="Tlzxx7g_BvjtaXMO_pwe-6" value="&lt;p style=&quot;margin:0px;margin-top:4px;text-align:center;&quot;&gt;class Phone&lt;br&gt;&lt;/p&gt;&lt;hr size=&quot;1&quot;&gt;&lt;p style=&quot;margin:0px;margin-left:4px;&quot;&gt;&lt;/p&gt;&amp;nbsp;_phone&lt;div&gt;&amp;nbsp;phone&lt;/div&gt;&lt;hr size=&quot;1&quot;&gt;&lt;p style=&quot;margin:0px;margin-left:4px;&quot;&gt;__init__&lt;/p&gt;&lt;p style=&quot;margin:0px;margin-left:4px;&quot;&gt;__len__&lt;/p&gt;&lt;p style=&quot;margin:0px;margin-left:4px;&quot;&gt;__str__&lt;/p&gt;&lt;p style=&quot;margin:0px;margin-left:4px;&quot;&gt;correct&lt;/p&gt;" style="verticalAlign=top;align=left;overflow=fill;fontSize=12;fontFamily=Helvetica;html=1;whiteSpace=wrap;fillColor=#dae8fc;strokeColor=#6c8ebf;" vertex="1" parent="WIyWlLk6GJQsqaUBKTNV-1">
          <mxGeometry x="270" y="-40" width="91" height="140" as="geometry" />
        </mxCell>
        <mxCell id="Tlzxx7g_BvjtaXMO_pwe-7" value="" style="endArrow=classic;html=1;rounded=0;entryX=-0.022;entryY=0.108;entryDx=0;entryDy=0;entryPerimeter=0;exitX=1;exitY=0.25;exitDx=0;exitDy=0;" edge="1" parent="WIyWlLk6GJQsqaUBKTNV-1" source="Tlzxx7g_BvjtaXMO_pwe-0" target="Tlzxx7g_BvjtaXMO_pwe-13">
          <mxGeometry width="50" height="50" relative="1" as="geometry">
            <mxPoint x="160" y="-10" as="sourcePoint" />
            <mxPoint x="110" y="30" as="targetPoint" />
            <Array as="points">
              <mxPoint x="380" y="-50" />
            </Array>
          </mxGeometry>
        </mxCell>
        <mxCell id="Tlzxx7g_BvjtaXMO_pwe-8" value="" style="endArrow=classic;html=1;rounded=0;entryX=-0.006;entryY=0.287;entryDx=0;entryDy=0;entryPerimeter=0;" edge="1" parent="WIyWlLk6GJQsqaUBKTNV-1" source="Tlzxx7g_BvjtaXMO_pwe-6" target="Tlzxx7g_BvjtaXMO_pwe-13">
          <mxGeometry width="50" height="50" relative="1" as="geometry">
            <mxPoint x="170" as="sourcePoint" />
            <mxPoint x="111" y="120" as="targetPoint" />
          </mxGeometry>
        </mxCell>
        <mxCell id="Tlzxx7g_BvjtaXMO_pwe-9" value="" style="endArrow=classic;html=1;rounded=0;entryX=-0.03;entryY=0.373;entryDx=0;entryDy=0;entryPerimeter=0;exitX=1.002;exitY=0.55;exitDx=0;exitDy=0;exitPerimeter=0;" edge="1" parent="WIyWlLk6GJQsqaUBKTNV-1" source="Tlzxx7g_BvjtaXMO_pwe-2" target="Tlzxx7g_BvjtaXMO_pwe-13">
          <mxGeometry width="50" height="50" relative="1" as="geometry">
            <mxPoint x="280" y="50" as="sourcePoint" />
            <mxPoint x="100" y="140" as="targetPoint" />
          </mxGeometry>
        </mxCell>
        <mxCell id="Tlzxx7g_BvjtaXMO_pwe-10" value="" style="endArrow=classic;html=1;rounded=0;entryX=0;entryY=0.5;entryDx=0;entryDy=0;exitX=1.022;exitY=0.323;exitDx=0;exitDy=0;exitPerimeter=0;" edge="1" parent="WIyWlLk6GJQsqaUBKTNV-1" source="Tlzxx7g_BvjtaXMO_pwe-3" target="Tlzxx7g_BvjtaXMO_pwe-13">
          <mxGeometry width="50" height="50" relative="1" as="geometry">
            <mxPoint x="170" y="180" as="sourcePoint" />
            <mxPoint x="110" y="160" as="targetPoint" />
            <Array as="points" />
          </mxGeometry>
        </mxCell>
        <mxCell id="Tlzxx7g_BvjtaXMO_pwe-11" value="" style="endArrow=classic;html=1;rounded=0;entryX=0.002;entryY=0.921;entryDx=0;entryDy=0;entryPerimeter=0;exitX=1.016;exitY=0.445;exitDx=0;exitDy=0;exitPerimeter=0;" edge="1" parent="WIyWlLk6GJQsqaUBKTNV-1" source="Tlzxx7g_BvjtaXMO_pwe-4" target="Tlzxx7g_BvjtaXMO_pwe-13">
          <mxGeometry width="50" height="50" relative="1" as="geometry">
            <mxPoint x="170" y="180" as="sourcePoint" />
            <mxPoint x="110" y="160" as="targetPoint" />
          </mxGeometry>
        </mxCell>
        <mxCell id="Tlzxx7g_BvjtaXMO_pwe-13" value="&lt;p style=&quot;margin:0px;margin-top:4px;text-align:center;&quot;&gt;class Record&lt;br&gt;&lt;/p&gt;&lt;hr size=&quot;1&quot;&gt;&lt;p style=&quot;margin:0px;margin-left:4px;&quot;&gt;&lt;/p&gt;&amp;nbsp;address&lt;div&gt;&amp;nbsp;birthday&lt;/div&gt;&lt;div&gt;&amp;nbsp;email&lt;/div&gt;&lt;div&gt;&amp;nbsp;name&lt;/div&gt;&lt;div&gt;&amp;nbsp;notes&lt;/div&gt;&lt;div&gt;&amp;nbsp;phones&lt;/div&gt;&lt;div&gt;&amp;nbsp;tags&lt;/div&gt;&lt;hr size=&quot;1&quot;&gt;&lt;p style=&quot;margin:0px;margin-left:4px;&quot;&gt;__init__&lt;/p&gt;&lt;p style=&quot;margin:0px;margin-left:4px;&quot;&gt;__str__&lt;/p&gt;&lt;p style=&quot;margin:0px;margin-left:4px;&quot;&gt;add_birthday&lt;/p&gt;&lt;p style=&quot;margin:0px;margin-left:4px;&quot;&gt;add_note&lt;/p&gt;&lt;p style=&quot;margin:0px;margin-left:4px;&quot;&gt;add_phone&lt;/p&gt;&lt;p style=&quot;margin:0px;margin-left:4px;&quot;&gt;add_tag&lt;/p&gt;&lt;p style=&quot;margin:0px;margin-left:4px;&quot;&gt;age_at_next_birthday&lt;/p&gt;&lt;p style=&quot;margin:0px;margin-left:4px;&quot;&gt;change_email&lt;/p&gt;&lt;p style=&quot;margin:0px;margin-left:4px;&quot;&gt;days_to_birthday&lt;/p&gt;&lt;p style=&quot;margin:0px;margin-left:4px;&quot;&gt;del_contact&lt;/p&gt;&lt;p style=&quot;margin:0px;margin-left:4px;&quot;&gt;del_phone&lt;/p&gt;&lt;p style=&quot;margin:0px;margin-left:4px;&quot;&gt;delete_note&lt;/p&gt;&lt;p style=&quot;margin:0px;margin-left:4px;&quot;&gt;delete_tag&lt;/p&gt;&lt;p style=&quot;margin:0px;margin-left:4px;&quot;&gt;edit_note&lt;/p&gt;&lt;p style=&quot;margin:0px;margin-left:4px;&quot;&gt;edit_phone&lt;/p&gt;&lt;p style=&quot;margin:0px;margin-left:4px;&quot;&gt;show_notes&lt;/p&gt;" style="verticalAlign=top;align=left;overflow=fill;fontSize=12;fontFamily=Helvetica;html=1;whiteSpace=wrap;fillColor=#fff2cc;strokeColor=#d6b656;" vertex="1" parent="WIyWlLk6GJQsqaUBKTNV-1">
          <mxGeometry x="400" y="50" width="160" height="380" as="geometry" />
        </mxCell>
        <mxCell id="Tlzxx7g_BvjtaXMO_pwe-19" value="" style="endArrow=blockThin;endFill=0;endSize=24;html=1;rounded=0;fontFamily=Helvetica;fontSize=12;fontColor=default;entryX=0.892;entryY=1.009;entryDx=0;entryDy=0;entryPerimeter=0;exitX=0;exitY=0.5;exitDx=0;exitDy=0;" edge="1" parent="WIyWlLk6GJQsqaUBKTNV-1" source="Tlzxx7g_BvjtaXMO_pwe-4" target="VwsCQoI9j7GchgmYV7Oo-0">
          <mxGeometry width="160" relative="1" as="geometry">
            <mxPoint x="350" y="360" as="sourcePoint" />
            <mxPoint x="510" y="360" as="targetPoint" />
          </mxGeometry>
        </mxCell>
        <mxCell id="Tlzxx7g_BvjtaXMO_pwe-20" value="" style="endArrow=blockThin;endFill=0;endSize=24;html=1;rounded=0;fontFamily=Helvetica;fontSize=12;fontColor=default;entryX=1;entryY=1;entryDx=0;entryDy=0;exitX=-0.019;exitY=0.66;exitDx=0;exitDy=0;exitPerimeter=0;" edge="1" parent="WIyWlLk6GJQsqaUBKTNV-1" source="Tlzxx7g_BvjtaXMO_pwe-3" target="VwsCQoI9j7GchgmYV7Oo-0">
          <mxGeometry width="160" relative="1" as="geometry">
            <mxPoint x="170" y="420" as="sourcePoint" />
            <mxPoint x="101" y="231" as="targetPoint" />
          </mxGeometry>
        </mxCell>
        <mxCell id="Tlzxx7g_BvjtaXMO_pwe-21" value="" style="endArrow=blockThin;endFill=0;endSize=24;html=1;rounded=0;fontFamily=Helvetica;fontSize=12;fontColor=default;entryX=1;entryY=0.5;entryDx=0;entryDy=0;exitX=-0.011;exitY=0.463;exitDx=0;exitDy=0;exitPerimeter=0;" edge="1" parent="WIyWlLk6GJQsqaUBKTNV-1" source="Tlzxx7g_BvjtaXMO_pwe-2" target="VwsCQoI9j7GchgmYV7Oo-0">
          <mxGeometry width="160" relative="1" as="geometry">
            <mxPoint x="268" y="353" as="sourcePoint" />
            <mxPoint x="111" y="260" as="targetPoint" />
          </mxGeometry>
        </mxCell>
        <mxCell id="Tlzxx7g_BvjtaXMO_pwe-22" value="" style="endArrow=blockThin;endFill=0;endSize=24;html=1;rounded=0;fontFamily=Helvetica;fontSize=12;fontColor=default;entryX=1;entryY=0;entryDx=0;entryDy=0;exitX=0;exitY=0.5;exitDx=0;exitDy=0;" edge="1" parent="WIyWlLk6GJQsqaUBKTNV-1" source="Tlzxx7g_BvjtaXMO_pwe-6" target="VwsCQoI9j7GchgmYV7Oo-0">
          <mxGeometry width="160" relative="1" as="geometry">
            <mxPoint x="169" y="189" as="sourcePoint" />
            <mxPoint x="111" y="190" as="targetPoint" />
          </mxGeometry>
        </mxCell>
        <mxCell id="Tlzxx7g_BvjtaXMO_pwe-23" value="" style="endArrow=blockThin;endFill=0;endSize=24;html=1;rounded=0;fontFamily=Helvetica;fontSize=12;fontColor=default;entryX=0.871;entryY=-0.025;entryDx=0;entryDy=0;exitX=0;exitY=0.5;exitDx=0;exitDy=0;entryPerimeter=0;" edge="1" parent="WIyWlLk6GJQsqaUBKTNV-1" source="Tlzxx7g_BvjtaXMO_pwe-0" target="VwsCQoI9j7GchgmYV7Oo-0">
          <mxGeometry width="160" relative="1" as="geometry">
            <mxPoint x="280" y="40" as="sourcePoint" />
            <mxPoint x="111" y="120" as="targetPoint" />
          </mxGeometry>
        </mxCell>
        <mxCell id="Tlzxx7g_BvjtaXMO_pwe-24" value="&lt;p style=&quot;margin:0px;margin-top:4px;text-align:center;&quot;&gt;class Note&lt;br&gt;&lt;/p&gt;&lt;hr size=&quot;1&quot;&gt;&lt;p style=&quot;margin:0px;margin-left:4px;&quot;&gt;&lt;/p&gt;&amp;nbsp;content&lt;div&gt;&amp;nbsp;title&lt;/div&gt;&lt;hr size=&quot;1&quot;&gt;&lt;p style=&quot;margin:0px;margin-left:4px;&quot;&gt;__init__&lt;/p&gt;&lt;p style=&quot;margin:0px;margin-left:4px;&quot;&gt;__str__&lt;/p&gt;" style="verticalAlign=top;align=left;overflow=fill;fontSize=12;fontFamily=Helvetica;html=1;whiteSpace=wrap;fillColor=#d5e8d4;strokeColor=#82b366;" vertex="1" parent="WIyWlLk6GJQsqaUBKTNV-1">
          <mxGeometry x="440" y="-140" width="91" height="110" as="geometry" />
        </mxCell>
        <mxCell id="Tlzxx7g_BvjtaXMO_pwe-25" value="&lt;p style=&quot;margin:0px;margin-top:4px;text-align:center;&quot;&gt;class Tag&lt;br&gt;&lt;/p&gt;&lt;hr size=&quot;1&quot;&gt;&lt;p style=&quot;margin:0px;margin-left:4px;&quot;&gt;&lt;/p&gt;&amp;nbsp;&amp;nbsp;tag&lt;hr size=&quot;1&quot;&gt;&lt;p style=&quot;margin:0px;margin-left:4px;&quot;&gt;__init__&lt;/p&gt;&lt;p style=&quot;margin:0px;margin-left:4px;&quot;&gt;__str__&lt;/p&gt;" style="verticalAlign=top;align=left;overflow=fill;fontSize=12;fontFamily=Helvetica;html=1;whiteSpace=wrap;fillColor=#d5e8d4;strokeColor=#82b366;" vertex="1" parent="WIyWlLk6GJQsqaUBKTNV-1">
          <mxGeometry x="434.5" y="460" width="91" height="110" as="geometry" />
        </mxCell>
        <mxCell id="Tlzxx7g_BvjtaXMO_pwe-26" value="" style="endArrow=classic;html=1;rounded=0;entryX=0.5;entryY=1;entryDx=0;entryDy=0;exitX=0.5;exitY=0;exitDx=0;exitDy=0;" edge="1" parent="WIyWlLk6GJQsqaUBKTNV-1" source="Tlzxx7g_BvjtaXMO_pwe-25" target="Tlzxx7g_BvjtaXMO_pwe-13">
          <mxGeometry width="50" height="50" relative="1" as="geometry">
            <mxPoint x="262" y="413" as="sourcePoint" />
            <mxPoint x="410" y="410" as="targetPoint" />
          </mxGeometry>
        </mxCell>
        <mxCell id="Tlzxx7g_BvjtaXMO_pwe-27" value="" style="endArrow=classic;html=1;rounded=0;entryX=0.5;entryY=0;entryDx=0;entryDy=0;exitX=0.5;exitY=1;exitDx=0;exitDy=0;" edge="1" parent="WIyWlLk6GJQsqaUBKTNV-1" source="Tlzxx7g_BvjtaXMO_pwe-24" target="Tlzxx7g_BvjtaXMO_pwe-13">
          <mxGeometry width="50" height="50" relative="1" as="geometry">
            <mxPoint x="490" y="470" as="sourcePoint" />
            <mxPoint x="490" y="440" as="targetPoint" />
          </mxGeometry>
        </mxCell>
        <mxCell id="Tlzxx7g_BvjtaXMO_pwe-29" value="&lt;p style=&quot;margin:0px;margin-top:4px;text-align:center;&quot;&gt;AddressBook&lt;br&gt;&lt;/p&gt;&lt;hr size=&quot;1&quot;&gt;&lt;p style=&quot;margin:0px;margin-left:4px;&quot;&gt;&lt;/p&gt;&amp;nbsp; data&lt;br&gt;&lt;hr size=&quot;1&quot;&gt;&lt;p style=&quot;margin:0px;margin-left:4px;&quot;&gt;__str__&lt;/p&gt;&lt;p style=&quot;margin:0px;margin-left:4px;&quot;&gt;add_record&lt;/p&gt;&lt;p style=&quot;margin:0px;margin-left:4px;&quot;&gt;contacts_with_upcoming_birthdays&lt;/p&gt;&lt;p style=&quot;margin:0px;margin-left:4px;&quot;&gt;delete_by_name&lt;/p&gt;&lt;p style=&quot;margin:0px;margin-left:4px;&quot;&gt;delete_record&lt;/p&gt;&lt;p style=&quot;margin:0px;margin-left:4px;&quot;&gt;edit_record&lt;/p&gt;&lt;p style=&quot;margin:0px;margin-left:4px;&quot;&gt;iterator&lt;/p&gt;&lt;p style=&quot;margin:0px;margin-left:4px;&quot;&gt;load_from_file&lt;/p&gt;&lt;p style=&quot;margin:0px;margin-left:4px;&quot;&gt;save_to_file&lt;/p&gt;&lt;p style=&quot;margin:0px;margin-left:4px;&quot;&gt;search_by_name&lt;/p&gt;&lt;p style=&quot;margin:0px;margin-left:4px;&quot;&gt;search_by_note&lt;/p&gt;&lt;p style=&quot;margin:0px;margin-left:4px;&quot;&gt;search_by_phone&lt;/p&gt;&lt;p style=&quot;margin:0px;margin-left:4px;&quot;&gt;search_by_tag&lt;/p&gt;&lt;p style=&quot;margin:0px;margin-left:4px;&quot;&gt;search_records&lt;/p&gt;" style="verticalAlign=top;align=left;overflow=fill;fontSize=12;fontFamily=Helvetica;html=1;whiteSpace=wrap;fillColor=#e1d5e7;strokeColor=#9673a6;" vertex="1" parent="WIyWlLk6GJQsqaUBKTNV-1">
          <mxGeometry x="640" y="50" width="200" height="380" as="geometry" />
        </mxCell>
        <mxCell id="Tlzxx7g_BvjtaXMO_pwe-30" value="" style="endArrow=classic;html=1;rounded=0;entryX=-0.016;entryY=0.397;entryDx=0;entryDy=0;entryPerimeter=0;" edge="1" parent="WIyWlLk6GJQsqaUBKTNV-1" target="Tlzxx7g_BvjtaXMO_pwe-29">
          <mxGeometry width="50" height="50" relative="1" as="geometry">
            <mxPoint x="560" y="201" as="sourcePoint" />
            <mxPoint x="405" y="202" as="targetPoint" />
          </mxGeometry>
        </mxCell>
        <mxCell id="Tlzxx7g_BvjtaXMO_pwe-31" value="&lt;p style=&quot;margin:0px;margin-top:4px;text-align:center;&quot;&gt;pickle.load&lt;br&gt;&lt;/p&gt;" style="verticalAlign=top;align=left;overflow=fill;fontSize=12;fontFamily=Helvetica;html=1;whiteSpace=wrap;fillColor=#d80073;strokeColor=#A50040;fontColor=#ffffff;" vertex="1" parent="WIyWlLk6GJQsqaUBKTNV-1">
          <mxGeometry x="680" y="-80" width="91" height="40" as="geometry" />
        </mxCell>
        <mxCell id="Tlzxx7g_BvjtaXMO_pwe-32" value="" style="endArrow=classic;html=1;rounded=0;entryX=0.5;entryY=0;entryDx=0;entryDy=0;" edge="1" parent="WIyWlLk6GJQsqaUBKTNV-1">
          <mxGeometry width="50" height="50" relative="1" as="geometry">
            <mxPoint x="720" y="-40" as="sourcePoint" />
            <mxPoint x="722.5" y="50" as="targetPoint" />
          </mxGeometry>
        </mxCell>
        <mxCell id="Tlzxx7g_BvjtaXMO_pwe-33" value="&lt;p style=&quot;margin:0px;margin-top:4px;text-align:center;&quot;&gt;UserDict&lt;br&gt;&lt;/p&gt;" style="verticalAlign=top;align=left;overflow=fill;fontSize=12;fontFamily=Helvetica;html=1;whiteSpace=wrap;fillColor=#6a00ff;strokeColor=#3700CC;fontColor=#ffffff;" vertex="1" parent="WIyWlLk6GJQsqaUBKTNV-1">
          <mxGeometry x="960" y="220" width="91" height="40" as="geometry" />
        </mxCell>
        <mxCell id="Tlzxx7g_BvjtaXMO_pwe-34" value="" style="endArrow=blockThin;endFill=0;endSize=24;html=1;rounded=0;fontFamily=Helvetica;fontSize=12;fontColor=default;entryX=0;entryY=0.5;entryDx=0;entryDy=0;exitX=1;exitY=0.5;exitDx=0;exitDy=0;" edge="1" parent="WIyWlLk6GJQsqaUBKTNV-1" source="Tlzxx7g_BvjtaXMO_pwe-29" target="Tlzxx7g_BvjtaXMO_pwe-33">
          <mxGeometry width="160" relative="1" as="geometry">
            <mxPoint x="918" y="200" as="sourcePoint" />
            <mxPoint x="860" y="201" as="targetPoint" />
          </mxGeometry>
        </mxCell>
      </root>
    </mxGraphModel>
  </diagram>
</mxfile>
